<svg xmlns="http://www.w3.org/2000/svg" width="370" height="100"><g fill="none" fill-rule="evenodd"><path fill="#FCD20A" fill-rule="nonzero" d="M96.943 57.097c-2.827 2.742-6.705 3.548-8.32 1.935-1.616-1.613-.809-5.564 2.019-8.306 2.827-2.742 6.624-3.63 8.24-2.016 1.616 1.532.889 5.645-1.939 8.387"/><path fill="#FCD800" fill-rule="nonzero" d="M108.415 56.694c-2.02 2.258-4.767 3.064-6.14 1.935-1.292-1.129-.808-4.113 1.212-6.37 2.02-2.178 4.847-3.227 6.14-2.098 1.373 1.21.807 4.274-1.212 6.533"/><path fill="#F8A81B" fill-rule="nonzero" d="M60.751 42.58c-3.797-.806-9.048.485-12.683 4.033-3.797 3.71-6.544 8.87-5.009 13.064.565 1.694 3.07 3.388 5.009 3.468 3.877.161 8.32-1.613 11.31-4.355 3.231-2.984 5.008-7.338 5.09-10.484 0-.725 0-1.129-.162-1.935-.323-1.774-2.1-3.468-3.555-3.79"/><path fill="#F9BB16" fill-rule="nonzero" d="M81.432 57.5c-3.797 3.629-9.37 4.92-11.552 2.823-2.181-2.178-.889-7.5 2.908-11.13 3.716-3.628 9.048-4.516 11.149-2.338 2.18 2.097 1.211 7.016-2.505 10.645"/><path fill="#FCD20A" fill-rule="nonzero" d="M106.234 39.758c-2.343 3.145-6.06 4.516-7.917 3.226-1.858-1.29-1.858-5.323.404-8.468 2.342-3.145 6.14-4.758 7.997-3.468 1.858 1.29 1.858 5.565-.484 8.71"/><path fill="#FCD800" fill-rule="nonzero" d="M115.2 43.145c-1.857 2.58-4.604 3.79-6.139 2.742-1.535-1.048-1.292-4.113.566-6.693 1.858-2.5 4.685-3.952 6.22-2.904 1.454 1.049 1.212 4.355-.646 6.855"/><path fill="#F9B517" fill-rule="nonzero" d="M76.02 29.758c-4.686 5.645-11.876 7.903-14.946 5-3.554-3.468-3.716-8.952 1.535-15.564 5.655-7.097 11.957-7.42 15.269-4.759 3.231 2.662 2.827 9.678-1.858 15.323"/><path fill="#FAC113" fill-rule="nonzero" d="M93.55 35.323c-3.474 5.806-8.805 5.887-11.148 4.032-2.343-1.936-1.697-7.42 1.696-11.452s8.725-5.645 10.906-3.468c1.778 1.775 1.212 6.371-1.454 10.888"/><path fill="#F7A11C" fill-rule="nonzero" d="M55.904 1.048c-12.28-5.16-24.64 11.452-23.67 20.807.807 7.177 5.332 10.08 11.794 9.113.081-.08.243-.08.324-.08 6.786-.888 12.44-6.453 15.026-11.291.888-1.694 1.535-3.71 1.858-5.807.08-.806.161-1.693.161-2.5-.08-4.435-1.696-8.629-5.493-10.242"/><path fill="#F7991D" fill-rule="nonzero" d="M30.133 38.226c-2.827.484-5.493 1.613-7.917 3.226-3.958 2.338-7.19 5.403-9.129 9.113-2.342 4.516-2.02 8.629-.08 11.451.888 1.532 2.18 2.42 3.393 2.984.646.242 1.373.484 2.1.645 2.1.484 4.524.484 7.19-.242 7.755-2.097 16.642-10.564 16.561-18.548.08-7.823-5.655-10-12.118-8.63"/><path fill="#FCD800" fill-rule="nonzero" d="M106.153 69.032c-2.181 2.097-4.928 2.742-6.22 1.533-1.212-1.21-.566-4.113 1.615-6.21 2.181-2.097 5.009-2.903 6.301-1.694 1.293 1.21.485 4.274-1.696 6.371"/><path fill="#FCD20A" fill-rule="nonzero" d="M92.742 72.984c-2.908 2.58-6.624 3.226-8.159 1.532-1.454-1.693-.323-5.161 2.666-7.742 2.989-2.5 6.463-3.226 7.998-1.532 1.535 1.774.484 5.161-2.505 7.742"/><path fill="#F9BD15" fill-rule="nonzero" d="M74.808 78.468c-3.959 3.387-8.887 4.274-10.906 2.016-2.02-2.258-.404-6.855 3.554-10.242 3.959-3.387 8.644-4.274 10.664-2.016 2.1 2.258.646 6.855-3.312 10.242"/><path fill="#F9A81A" fill-rule="nonzero" d="M52.753 70.887c-7.917-2.258-20.439 7.823-18.661 15.726.404 1.774 2.908 3.387 4.847 3.629 7.917.806 16.803-7.58 17.288-13.63-.08-.725-.08-1.37-.08-2.096-.243-1.774-2.02-3.226-3.394-3.629"/><path fill="#F79A1D" fill-rule="nonzero" d="M31.507 79.677c-1.455-5.967-8.725-5.483-13.573-4.112-1.777.403-3.635 1.129-5.331 2.016-2.505 1.21-4.605 2.742-6.463 4.516C3.797 84.355-.162 89.355.646 94.194c.808 5.08 7.271 6.612 13.007 5.241 6.947-1.532 20.035-10.483 17.854-19.758"/><path fill="#FFF" fill-rule="nonzero" d="M152.928 37.903c-1.05-3.064-.97-7.338-6.059-7.258-5.009.161-7.352 3.387-7.352 7.339 0 6.37 16.158 7.58 17.37 20.484.727 7.742-6.787 20.484-21.894 20.645-6.14 0-13.814-2.742-13.895-15.645l10.906-2.339c.081 3.226-.161 9.032 6.06 9.032 4.766 0 7.19-4.435 7.593-7.984.889-8.064-17.126-10.403-17.046-20.725.162-9.678 6.382-19.597 21.247-19.517 14.784.081 12.764 13.307 12.764 13.307l-9.694 2.661z"/><path fill="#FFF" d="M175.225 46.21l-5.817 22.903c1.293 2.016 2.909 3.064 5.009 2.984 1.293.08 2.585-.484 3.797-1.855 1.212-1.371 2.424-4.032 3.393-8.145l2.262-8.871c.97-4.032 1.212-6.774.646-8.065-.565-1.37-1.535-2.016-2.827-1.855-2.02-.08-4.12.888-6.463 2.904zm-7.11-9.436h8.726l-1.293 5.08h.162c1.292-1.37 2.908-2.66 5.09-3.87 2.18-1.21 4.28-1.855 6.462-1.936 3.635 0 5.978 1.452 6.948 4.275.969 2.822.727 6.935-.727 12.338l-2.586 10.162c-1.292 5.322-3.15 9.516-5.574 12.338-2.343 2.823-5.413 4.194-9.048 4.274a7.235 7.235 0 01-3.716-1.048c-1.293-.726-2.828-1.855-4.605-3.548l-5.897 23.226h-9.371l15.43-61.29zm82.483 14.436h-9.452l.485-1.855c.404-1.613.162-2.823-.646-3.71-.727-.806-2.02-1.29-3.716-1.29-1.697 0-3.151.403-4.363 1.29-1.212.807-2.02 2.097-2.504 3.71L226.2 65.968c-.404 1.613-.162 2.822.565 3.71.808.806 2.02 1.21 3.717 1.21 1.696 0 3.15-.404 4.362-1.21 1.212-.807 2.02-2.097 2.424-3.71l.646-2.58h9.533v.16c-1.455 5.484-3.797 9.517-7.029 12.017-3.231 2.58-7.27 3.79-12.037 3.71-4.766.08-8.24-1.21-10.179-3.71-2.02-2.581-2.262-6.533-.97-12.017l2.909-11.693c1.454-5.484 3.797-9.516 7.028-12.016 3.313-2.58 7.271-3.79 12.037-3.79 4.686-.081 7.998 1.21 10.018 3.628 2.181 2.34 2.585 6.21 1.373 11.533M284.528 60h-20.68l-1.374 5.565c-.485 2.096-.323 3.548.485 4.516.807.967 2.02 1.451 3.635 1.451 2.02-.08 3.554-.564 4.685-1.693 1.212-1.13 1.94-2.5 2.343-4.194h9.533c-1.293 4.355-3.555 7.742-6.705 10.08-3.15 2.42-7.11 3.55-11.876 3.63-4.605-.08-7.917-1.371-9.936-3.952-2.02-2.58-2.505-6.21-1.455-10.887l3.474-13.629c1.212-4.597 3.555-8.226 6.867-10.806 3.393-2.581 7.352-3.952 11.956-3.952 4.444.08 7.756 1.371 9.856 3.871 2.1 2.58 2.666 5.968 1.697 10.323L284.528 60zm-18.742-7.823h11.148l.566-2.338c.485-1.855.404-3.307-.242-4.436-.647-1.048-1.94-1.613-3.878-1.613-1.939 0-3.474.565-4.605 1.613-1.212 1.13-2.02 2.58-2.423 4.436l-.566 2.338zM341.321 60H320.64l-1.374 5.565c-.484 2.096-.323 3.548.485 4.516.808.967 2.02 1.451 3.635 1.451 2.02-.08 3.555-.564 4.767-1.693 1.13-1.13 1.858-2.5 2.262-4.194h9.533c-1.293 4.355-3.555 7.742-6.625 10.08-3.15 2.42-7.028 3.55-11.875 3.63-4.605-.08-7.917-1.371-9.937-3.952-2.02-2.58-2.504-6.21-1.454-10.887l3.393-13.71c1.212-4.596 3.554-8.225 6.867-10.806 3.393-2.58 7.351-3.952 11.956-3.952 4.524.081 7.755 1.371 9.856 3.871 2.1 2.581 2.666 5.968 1.616 10.323L341.32 60zm-18.662-7.823h11.149l.565-2.338c.485-1.855.404-3.307-.242-4.436-.646-1.048-1.939-1.613-3.797-1.613-1.939 0-3.474.565-4.686 1.613-1.211 1.13-2.02 2.58-2.504 4.436l-.485 2.338zm29.487-5.725h-4.928l1.94-7.823h4.927l3.636-14.516h9.532l-3.635 14.516h6.14l-1.94 7.823h-6.139l-5.332 21.37c-.242 1.049-.08 1.775.646 2.34.647.483 1.616.806 2.909.806.646 0 1.292-.08 1.939-.08l-2.02 8.144c-1.858.242-3.716.403-5.574.403-3.15 0-5.494-.645-6.948-1.854-1.454-1.29-1.858-3.468-1.212-6.452l6.06-24.677z"/><path fill="#FFF" fill-rule="nonzero" d="M292.526 65.726l6.786-26.855 3.716-14.758h9.533l-3.716 14.758-11.552 44.516c-1.455 5.484-3.797 9.436-7.029 11.936-3.231 2.58-7.27 3.79-12.037 3.79-4.847 0-8.24-1.21-10.179-3.79-2.02-2.581-2.343-6.533-.97-12.017l9.614-.08-.727 2.5c-.323 1.613-.162 2.822.646 3.629.808.806 2.02 1.29 3.717 1.29 1.696 0 3.15-.484 4.362-1.29 1.212-.807 2.02-2.016 2.504-3.63l.889-3.386 4.443-16.613z"/><path fill="#FFF" d="M205.52 36.774h9.532L204.55 78.548h-9.533zm10.583-3.871h-9.452l2.18-8.79h9.453z"/></g></svg>